# xmcd
#
# Track frame offsets: 
#        150
#        19571
#        39267
#        52298
#        76354
#        99290
#        131126
#        154302
#        172902
#        204712
#        227697
#        247556
#
# Disc length: 4349 seconds
#
# Revision: 1
# Processed by: cddbd v1.5.2PL0 Copyright (c) Steve Scherf et al.
# Submitted via: ExactAudioCopyFreeDBPlugin 1.0
#
DISCID=8e10fb0c
DTITLE=群星 - TEST-CD试音极品17CDB
DYEAR=2013
DGENRE=stereo
TTITLE0=海市蜃楼
TTITLE1=林登
TTITLE2=钟楼
TTITLE3=40080
TTITLE4=飞天
TTITLE5=寂寞星夜
TTITLE6=塔克拉玛干沙漠
TTITLE7=风神
TTITLE8=沙漠旅店
TTITLE9=临空
TTITLE10=迷雾
TTITLE11=西安祈祷
EXTD=
EXTT0=
EXTT1=
EXTT2=
EXTT3=
EXTT4=
EXTT5=
EXTT6=
EXTT7=
EXTT8=
EXTT9=
EXTT10=
EXTT11=
PLAYORDER=
